<?xml version="1.0" encoding="UTF-8" standalone="no"?>
<svg
   width="98.524307mm"
   height="65.682877mm"
   viewBox="0 0 98.524307 65.682877"
   version="1.1"
   xmlns="http://www.w3.org/2000/svg">
  <g transform="translate(-28.819342,-50.857741)">
    <path
      style="fill:#ffffff"
      d="M 60.541635,91.619747 l 18.106083,-9.06637 18.1061,9.06637 c 9.958352,4.98651 19.003902,9.039573 20.101222,9.006823 1.09733,-0.0326 -5.52159,-3.858163 -14.7087,-8.500883 -9.187112,-4.64272 -16.703832,-8.69279 -16.703832,-9.00015 0,-0.30737 5.09608,-0.55882 11.32463,-0.55882 9.659002,0 11.324632,0.26837 11.324632,1.82472 0,1.47207 -0.76605,1.68102 -3.96362,1.08116 -2.38316,-0.44707 -3.96362,-0.29202 -3.96362,0.38885 0,1.38229 7.30775,2.88409 8.98623,1.84674 0.66326,-0.40993 1.20594,-1.73446 1.20594,-2.94341 0,-1.75713 0.79515,-2.19809 3.96362,-2.19809 2.17999,0 3.96362,-0.50961 3.96362,-1.13246 0,-0.62286 -1.74818,-1.13247 -3.88486,-1.13247 -3.1608,0 -3.9523,-0.47274 -4.24674,-2.53647 -0.39516,-2.76986 -2.9769,-3.70986 -7.24623,-2.63832 -4.253292,1.06751 -3.229772,2.84669 1.22204,2.12426 3.17251,-0.51485 3.96362,-0.27457 3.96362,1.20366 0,1.5844 -1.60946,1.84687 -11.324632,1.84687 -6.22855,0 -11.32463,-0.25146 -11.32463,-0.55882 0,-0.30737 7.51672,-4.35743 16.703832,-9.000149 10.60603,-5.359781 15.67031,-8.446532 13.87268,-8.455612 -1.55714,-0.008 -10.69916,3.996904 -20.315602,8.899472 L 78.218978,80.100417 60.327262,71.14138 c -9.840447,-4.927468 -18.789531,-8.932231 -19.88685,-8.899472 -1.09732,0.03264 5.648998,3.982228 14.991821,8.776593 l 16.986935,8.717026 -6.017045,0.34477 c -5.315563,0.30459 -6.282348,0.007 -8.292554,-2.54804 -2.87683,-3.6573 -6.021444,-3.67798 -9.372934,-0.0616 -1.723798,1.86 -3.841785,2.83115 -6.174476,2.83115 -1.952857,0 -3.550647,0.50961 -3.550647,1.13247 0,0.62286 1.758307,1.13246 3.907352,1.13246 2.149039,0 4.314878,0.69002 4.812967,1.53338 2.431724,4.11733 9.690272,4.24161 11.244051,0.1925 0.48917,-1.27479 2.332616,-1.71034 7.052791,-1.66634 l 6.390495,0.0596 -16.703823,8.44131 c -9.187105,4.64272 -16.703833,8.69279 -16.703833,9.000153 0,1.71653 5.273541,-0.367293 21.530123,-8.507553 z m -10.205487,-7.92057 c 0,-0.62285 1.558899,-1.13246 3.464225,-1.13246 2.021104,0 3.172659,0.47173 2.764319,1.13246 -0.384948,0.62286 -1.943847,1.13246 -3.464225,1.13246 -1.520377,0 -2.764319,-0.5096 -2.764319,-1.13246 z m 0,-4.46302 c 0,-1.71564 2.108393,-2.53407 4.539983,-1.76231 3.407518,1.0815 2.701893,2.82794 -1.142593,2.82794 -1.868565,0 -3.39739,-0.47954 -3.39739,-1.06563 z m 29.44404,18.05258 c 0,-0.62285 -0.50961,-1.13246 -1.13247,-1.13246 -0.62285,0 -1.13246,0.50961 -1.13246,1.13246 0,0.62286 0.50961,1.13246 1.13246,1.13246 0.62286,0 1.13247,-0.5096 1.13247,-1.13246 z m 0,-31.708971 c 0,-0.622856 -0.50961,-1.132465 -1.13247,-1.132465 -0.62285,0 -1.13246,0.509609 -1.13246,1.132465 0,0.622852 0.50961,1.13246 1.13246,1.13246 0.62286,0 1.13247,-0.509608 1.13247,-1.13246 z"
    />
  </g>
</svg>
