<?xml version="1.0" standalone="no"?>
<!DOCTYPE svg PUBLIC "-//W3C//DTD SVG 20010904//EN"
 "http://www.w3.org/TR/2001/REC-SVG-20010904/DTD/svg10.dtd">
<svg version="1.0" xmlns="http://www.w3.org/2000/svg"
 width="87.000000pt" height="58.000000pt" viewBox="0 0 87.000000 58.000000"
 preserveAspectRatio="xMidYMid meet">

<g transform="translate(0.000000,58.000000) scale(0.100000,-0.100000)"
fill="#ffffff" stroke="none">
<path d="M0 290 l0 -290 435 0 435 0 0 290 0 290 -435 0 -435 0 0 -290z m275
118 l165 -83 165 83 c91 45 170 82 175 82 34 0 -7 -29 -132 -92 l-143 -73 84
-3 c85 -3 120 2 107 16 -4 4 -21 7 -37 7 -39 0 -37 19 3 25 45 8 58 2 58 -26
0 -21 5 -24 35 -24 19 0 35 -4 35 -10 0 -5 -16 -10 -35 -10 -31 0 -35 -3 -35
-26 0 -23 -3 -25 -42 -22 -54 4 -64 28 -12 28 26 0 35 3 28 10 -7 7 -47 10
-100 8 l-89 -3 145 -74 c99 -51 139 -76 125 -79 -11 -3 -86 29 -177 74 l-158
79 -158 -79 c-91 -45 -166 -77 -177 -74 -14 3 26 28 125 79 l145 74 -43 3
c-36 3 -48 -1 -67 -22 -30 -33 -59 -33 -91 -1 -15 15 -36 25 -54 25 -17 0 -30
5 -30 10 0 6 14 10 31 10 21 0 37 8 51 25 25 32 62 32 93 -1 19 -21 31 -25 67
-22 l43 3 -142 73 c-126 63 -167 92 -133 92 5 0 84 -37 175 -82z m175 42 c0
-5 -4 -10 -10 -10 -5 0 -10 5 -10 10 0 6 5 10 10 10 6 0 10 -4 10 -10z m0
-280 c0 -5 -4 -10 -10 -10 -5 0 -10 5 -10 10 0 6 5 10 10 10 6 0 10 -4 10 -10z"/>
<path d="M190 330 c0 -5 11 -10 25 -10 14 0 25 5 25 10 0 6 -11 10 -25 10 -14
0 -25 -4 -25 -10z"/>
<path d="M195 290 c3 -5 15 -10 26 -10 10 0 19 5 19 10 0 6 -12 10 -26 10 -14
0 -23 -4 -19 -10z"/>
</g>
</svg>
